<?xml version="1.0" encoding="UTF-8"?>
<svg id="Layer_1" xmlns="http://www.w3.org/2000/svg" version="1.1" xmlns:xlink="http://www.w3.org/1999/xlink" viewBox="0 0 240 81.04">
  <!-- Generator: Adobe Illustrator 29.7.1, SVG Export Plug-In . SVG Version: 2.1.1 Build 8)  -->
  <defs>
    <style>
      .st0 {
        fill: #00578e;
      }
    </style>
  </defs>
  <a xlink:href="https://telcobridges.com/">
    <g>
      <g>
        <path class="st0" d="M130.21,46.83h.07c1.68-2.52,3.54-3.59,6.37-3.35l-.58,2.7c-3.41-.62-5.96,1.59-6.71,5.09l-2.49,11.72h-2.75l4.1-19.3h2.64l-.67,3.14Z"/>
        <path class="st0" d="M135.35,62.99l4.1-19.3h2.75l-4.1,19.3h-2.75Z"/>
        <path class="st0" d="M154.19,55.41c-.46,2.17-2.02,5.73-4.89,5.73-3.78,0-3.12-3.76-2.24-7.9,1.26-5.9,3.14-7.69,5.45-7.69,3.71,0,2.75,4.86,2.19,7.48l-.5,2.38ZM156.25,45.72h-.07c-.94-1.67-1.95-2.5-3.95-2.5-4.14,0-6.95,4.47-7.93,10.09-.29,1.69-2.58,10.16,3.49,10.16,2.34,0,3.7-.77,5.37-3.05h.07l-.55,2.58h2.64l5.54-26.05h-2.74l-1.87,8.78Z"/>
        <path class="st0" d="M170.55,45.55c3.07,0,3.1,3.59,2.29,7.38-.65,3.07-1.71,8.21-5.88,8.21-2.72,0-2.85-3.11-1.86-7.79.55-2.59,1.79-7.79,5.45-7.79ZM174.34,45.93h-.07c-.55-1.84-1.96-2.71-3.74-2.71-5.1,0-7.36,5.95-8.22,9.99-1.64,7.72.33,10.26,3.99,10.26,1.78,0,3.2-.8,4.77-2.78h.07c-.49,2.12-.97,6.51-5.42,6.51-1.67,0-2.64-.66-2.52-2.41h-2.66c-.33,3.31,1.65,4.74,4.74,4.74,2.13,0,4.27-.77,5.9-2.68,1.72-2.05,2.28-3.87,2.78-6.23l3.6-16.92h-2.75l-.47,2.23Z"/>
        <path class="st0" d="M183.52,51.35c.59-2.28,1.41-5.8,4.61-5.8s2.31,3.56,1.94,5.8h-6.55ZM189.1,56.56c-.29,2.17-1.53,4.57-4.17,4.57-3.86,0-2.36-4.95-1.88-7.52h9.37c.82-4.51,2.42-10.39-3.82-10.39-5.1,0-7.46,6.06-8.32,10.12-1.64,7.7.43,10.13,4.08,10.13,4.06,0,6.67-3.16,7.29-6.9h-2.55Z"/>
        <path class="st0" d="M206.37,48.92c.59-2.29-.02-3.37-2.35-3.37-1.95,0-3.26.9-3.69,2.91-.54,2.5,1.46,2.82,3.18,3.5,2.49,1.25,5.1,1.95,4.33,5.56-.78,3.68-3.82,5.98-7.74,5.94-1.69.04-3.64-.56-4.34-2.02-.82-1.53-.48-2.82-.2-4.14h2.61c-.61,2.36-.12,3.82,2.43,3.82,2.21,0,3.85-.9,4.35-3.26.58-2.74-2.12-2.99-3.94-3.71-2.75-1.11-4.26-2.12-3.54-5.49.71-3.34,3.47-5.46,6.81-5.46,3.84,0,5.69,1.74,4.78,5.7h-2.68Z"/>
        <path class="st0" d="M46.38,50.52l.27-1.28c.29-1.35.93-2.59,2.51-2.59,1.44,0,1.62,1.28,1.48,1.97l-.4,1.9h-3.86ZM55.53,54.03l1.18-5.55c.89-4.19-2.09-6.07-5.97-6.03-4.3.04-8.08,2.08-9.14,7.07l-1.68,7.91c-.95,4.44,2.17,6.08,6.16,6.04,4.81-.07,8.01-2.36,8.8-7.36h-4.95c-.45,1.63-1.18,3.47-3.22,3.37-1.2-.07-1.5-.97-1.27-2.05l.72-3.4h9.37Z"/>
        <path class="st0" d="M57.35,62.99l5.68-26.6h5.51l-5.67,26.6h-5.51Z"/>
        <path class="st0" d="M78.1,50.62l.04-.36c.05-.73.3-1.32.32-2.05-.07-.79-.4-1.21-1.23-1.21-1.41,0-2.39,1.11-2.65,2.35l-1.7,8.01c-.26,1.21.36,2.25,1.78,2.25,2.04,0,2.17-3.05,2.48-4.5h5.09c-.24,1.14-.9,3.57-1.43,4.61-1.25,2.43-3.13,3.55-5.58,3.79-.52.04-1.02.1-1.85.1-3.95,0-6.49-1.6-5.54-6.04l1.68-7.9c1.06-5,3.98-6.88,8.24-6.88,5.43.07,6.76,2.49,5.31,7.84h-4.95Z"/>
        <path class="st0" d="M91.35,49.25c.27-1.25.9-2.25,2.2-2.25s1.51,1,1.24,2.25l-1.84,8.67c-.34,1.11-.92,1.7-2.08,1.7s-1.49-.59-1.36-1.7l1.84-8.67ZM84.07,57.57c-.94,4.44,1.98,6.04,5.95,6.04,4.22,0,7.31-1.63,8.52-6.04l1.68-7.9c.93-4.37-.94-6.78-5.82-6.78-4.29,0-7.59,1.78-8.65,6.78l-1.68,7.9Z"/>
        <path class="st0" d="M112.08,51.89c2.59.1,4.35.03,3.7,3.05-.74,3.5-1.99,3.29-5.07,3.36l1.36-6.41ZM114.26,41.63c2.16,0,3.96-.11,3.42,2.47-.66,3.11-1.88,2.93-4.6,3.11l1.18-5.58ZM111.95,62.99c4.97,0,8.44-2.26,9.56-7.53.69-3.23.39-4.62-2.05-6.22l.02-.07c2.37-1.15,3.64-3.2,4.13-5.49,1.12-5.24-2.18-6.9-6.81-6.9h-7.93l-5.54,26.22h8.63Z"/>
        <path class="st0" d="M22.69,41.76h8.42l-4.49,21.23h6.12l4.49-21.23h6.69l1.33-5.09h-11.78c-3.76,1.63-7.37,3.33-10.78,5.09Z"/>
      </g>
      <path class="st0" d="M212.15,38.67c-1.25-25.57-30.33-22.42-36.26-5.27-7.1-18.27-20.93-8.61-27.97-.8,1.42-3.02,1.83-5.92,1.07-8.58-4.09-14.42-40.6-16.7-81.54-5.08-25.61,7.26-46.88,18.24-58.23,28.97,12.34-8.33,29.8-16.24,49.85-21.92,42.09-11.94,79.63-9.58,83.85,5.29.91,3.21.19,6.75-1.93,10.44,1.42-1.38,2.67-2.76,3.75-4.12,17.95-19.77,26.6-6.94,31.37-2.58,18.09-20.14,36.33-3.22,35.31,4.69,21.68,2.71,6.67,24.61,6.67,24.61,19.19-15.46,1.69-30.03-5.93-25.64Z"/>
    </g>
  </a>
</svg>