<?xml version="1.0" encoding="UTF-8"?>
<svg id="Layer_1" xmlns="http://www.w3.org/2000/svg" version="1.1" xmlns:xlink="http://www.w3.org/1999/xlink" viewBox="0 0 128 128">
  <!-- Generator: Adobe Illustrator 29.7.1, SVG Export Plug-In . SVG Version: 2.1.1 Build 8)  -->
  <defs>
    <style>
      .st0 {
        fill: #0a66c2;
        fill-rule: evenodd;
      }
    </style>
  </defs>
  <a xlink:href="https://www.linkedin.com/company/77567/admin/page-posts/published/?share=true">
    <path id="path661" class="st0" d="M11.27,1.92C6.21,1.92,1.92,5.92,1.92,10.85v106.29c0,4.94,2.81,8.94,7.88,8.94h105.82c5.07,0,10.47-4,10.47-8.94V10.85c0-4.93-3.93-8.94-9-8.94H11.27ZM28.52,17.44c6.13,0,11.09,4.96,11.09,11.09s-4.96,11.09-11.09,11.09-11.09-4.96-11.09-11.09,4.96-11.09,11.09-11.09ZM85.5,48.48c17.86,0,22.84,9.48,22.84,27.05v32.82h-17.74v-29.59c0-7.86-3.14-14.76-10.49-14.76-8.92,0-13.17,6.04-13.17,15.95v28.4h-17.74v-59.13h16.71v8.52h.18c2.55-4.59,10.08-9.26,19.39-9.26h0ZM19.65,49.22h17.74v59.13h-17.74v-59.13Z"/>
  </a>
</svg>