<?xml version="1.0" encoding="UTF-8"?>
<svg id="Layer_1" data-name="Layer 1" xmlns="http://www.w3.org/2000/svg" version="1.1" viewBox="0 0 340 156">
  <defs>
    <style>
      .cls-1 {
        fill: #00578e;
        stroke-width: 0px;
      }
    </style>
  </defs>
  <g>
    <path class="cls-1" d="M188.9,87.38h.11c2.54-3.81,5.35-5.43,9.63-5.06l-.87,4.08c-5.15-.94-9.02,2.41-10.14,7.69l-3.76,17.71h-4.15l6.2-29.16h3.99l-1.01,4.75Z"/>
    <path class="cls-1" d="M196.68,111.8l6.2-29.16h4.15l-6.2,29.16h-4.15Z"/>
    <path class="cls-1" d="M225.15,100.34c-.7,3.29-3.06,8.65-7.39,8.65-5.72,0-4.71-5.68-3.39-11.94,1.9-8.91,4.75-11.62,8.24-11.62,5.61,0,4.15,7.35,3.31,11.31l-.76,3.59ZM228.27,85.7h-.11c-1.42-2.52-2.95-3.78-5.97-3.78-6.26,0-10.5,6.75-11.99,15.25-.44,2.55-3.89,15.35,5.27,15.35,3.54,0,5.59-1.16,8.12-4.62h.11l-.83,3.9h3.99l8.37-39.37h-4.14l-2.82,13.27Z"/>
    <path class="cls-1" d="M249.88,85.44c4.63,0,4.69,5.42,3.47,11.15-.98,4.63-2.59,12.41-8.89,12.41-4.11,0-4.31-4.69-2.81-11.78.83-3.91,2.71-11.78,8.24-11.78ZM255.6,86.01h-.11c-.83-2.78-2.97-4.1-5.65-4.1-7.71,0-11.12,9-12.43,15.09-2.48,11.68.51,15.51,6.03,15.51,2.68,0,4.83-1.21,7.21-4.2h.1c-.73,3.2-1.46,9.84-8.19,9.84-2.53,0-4-1-3.81-3.64h-4.02c-.5,5,2.49,7.16,7.17,7.16,3.21,0,6.45-1.16,8.91-4.06,2.6-3.11,3.45-5.85,4.2-9.42l5.44-25.58h-4.15l-.72,3.38Z"/>
    <path class="cls-1" d="M269.48,94.21c.89-3.45,2.13-8.77,6.97-8.77s3.49,5.38,2.92,8.77h-9.9ZM277.91,102.09c-.44,3.27-2.31,6.91-6.31,6.91-5.84,0-3.57-7.48-2.85-11.37h14.17c1.24-6.81,3.65-15.71-5.77-15.71-7.71,0-11.27,9.16-12.57,15.29-2.48,11.64.65,15.32,6.17,15.32,6.14,0,10.08-4.77,11.02-10.43h-3.86Z"/>
    <path class="cls-1" d="M304.01,90.53c.89-3.47-.02-5.09-3.56-5.09-2.95,0-4.93,1.37-5.58,4.41-.81,3.78,2.2,4.25,4.81,5.29,3.77,1.89,7.71,2.94,6.55,8.4-1.18,5.56-5.77,9.04-11.7,8.98-2.56.05-5.51-.84-6.56-3.05-1.24-2.31-.72-4.25-.3-6.25h3.94c-.92,3.57-.19,5.78,3.67,5.78,3.33,0,5.82-1.37,6.57-4.93.88-4.15-3.2-4.52-5.96-5.61-4.16-1.68-6.44-3.2-5.36-8.29,1.07-5.04,5.24-8.25,10.29-8.25,5.8,0,8.6,2.63,7.22,8.62h-4.04Z"/>
    <path class="cls-1" d="M62.21,92.95l.42-1.93c.43-2.03,1.41-3.91,3.8-3.91,2.18,0,2.46,1.93,2.23,2.98l-.61,2.87h-5.84ZM76.04,98.26l1.78-8.38c1.34-6.33-3.17-9.17-9.03-9.11-6.5.05-12.21,3.15-13.81,10.68l-2.54,11.96c-1.43,6.71,3.28,9.18,9.3,9.13,7.27-.1,12.11-3.57,13.3-11.13h-7.48c-.68,2.47-1.79,5.25-4.87,5.1-1.82-.11-2.27-1.47-1.92-3.09l1.09-5.14h14.17Z"/>
    <path class="cls-1" d="M78.79,111.8l8.58-40.21h8.33l-8.58,40.21h-8.33Z"/>
    <path class="cls-1" d="M110.15,93.11l.06-.54c.07-1.1.45-2,.48-3.1-.11-1.2-.6-1.83-1.86-1.83-2.14,0-3.61,1.67-4.01,3.56l-2.58,12.1c-.39,1.83.55,3.4,2.69,3.4,3.08,0,3.29-4.61,3.75-6.81h7.69c-.37,1.72-1.36,5.39-2.17,6.97-1.89,3.67-4.73,5.36-8.44,5.72-.79.05-1.55.16-2.8.16-5.97,0-9.8-2.42-8.38-9.13l2.54-11.94c1.6-7.55,6.02-10.41,12.45-10.41,8.21.1,10.22,3.76,8.03,11.85h-7.48Z"/>
    <path class="cls-1" d="M130.18,91.04c.41-1.88,1.37-3.4,3.33-3.4s2.28,1.52,1.88,3.4l-2.79,13.1c-.52,1.68-1.4,2.57-3.15,2.57s-2.26-.89-2.06-2.57l2.78-13.1ZM119.18,103.61c-1.43,6.71,2.99,9.13,9,9.13,6.38,0,11.04-2.47,12.88-9.13l2.54-11.94c1.4-6.61-1.42-10.24-8.79-10.24-6.49,0-11.48,2.69-13.08,10.24l-2.54,11.94Z"/>
    <path class="cls-1" d="M161.5,95.03c3.92.16,6.57.05,5.6,4.61-1.13,5.29-3.01,4.97-7.66,5.08l2.06-9.69ZM164.8,79.51c3.27,0,5.99-.16,5.16,3.74-1,4.7-2.84,4.43-6.95,4.7l1.79-8.44ZM161.31,111.8c7.51,0,12.76-3.41,14.45-11.39,1.04-4.89.59-6.98-3.1-9.4l.02-.1c3.58-1.74,5.5-4.84,6.24-8.3,1.69-7.93-3.3-10.43-10.3-10.43h-11.99l-8.37,39.62h13.04Z"/>
    <path class="cls-1" d="M26.4,79.72h12.73l-6.78,32.08h9.25l6.78-32.08h10.1l2.01-7.7h-17.8c-5.69,2.46-11.13,5.03-16.29,7.7Z"/>
  </g>
  <path class="cls-1" d="M312.76,75.04c-1.88-38.64-45.84-33.88-54.81-7.97-10.73-27.62-31.63-13.02-42.28-1.2,2.15-4.57,2.77-8.94,1.62-12.97-6.18-21.8-61.36-25.24-123.24-7.68C55.36,56.19,23.21,72.78,6.06,89c18.65-12.59,45.04-24.54,75.34-33.13,63.62-18.05,120.35-14.47,126.73,7.99,1.38,4.86.29,10.2-2.91,15.78,2.15-2.09,4.04-4.17,5.67-6.23,27.13-29.89,40.2-10.49,47.41-3.9,27.35-30.45,54.92-4.87,53.36,7.09,32.77,4.1,10.08,37.2,10.08,37.2,29.01-23.36,2.55-45.39-8.97-38.75Z"/>
</svg>