<?xml version="1.0" encoding="UTF-8"?>
<svg id="Layer_1" xmlns="http://www.w3.org/2000/svg" version="1.1" xmlns:xlink="http://www.w3.org/1999/xlink" viewBox="0 0 128 128">
  <!-- Generator: Adobe Illustrator 29.7.1, SVG Export Plug-In . SVG Version: 2.1.1 Build 8)  -->
  <defs>
    <style>
      .st0 {
        fill: #21759a;
      }

      .st1 {
        fill: #21749a;
      }
    </style>
  </defs>
  <a xlink:href="https://telcobridges.com/wp-admin/">
    <g>
      <path class="st0" d="M61.83,2.01c32.95-1.18,61.37,24.1,64,56.93,3.12,38.93-30.03,71.02-68.85,66.71-27.08-3.01-49.33-23.95-54.06-50.74C-3.64,37.71,24.2,3.36,61.83,2.01ZM62.39,4.89C26.4,5.96-.3,38.45,5.72,74.06c4.34,25.66,25.67,45.81,51.55,48.7,38.14,4.26,70.12-28.16,65.39-66.23-3.71-29.91-30.08-52.54-60.26-51.64Z"/>
      <g>
        <path class="st1" d="M40.74,111.89c-2.42-1.22-4.77-2.57-7-4.11-19.14-13.24-27.51-37.34-20.52-59.73.61-1.95,1.38-3.83,2.14-5.72l25.38,69.56Z"/>
        <path class="st0" d="M90.68,109.94c5.44-15.56,10.79-31.15,16.18-46.73,3.19-9.21,4.56-14.16,3.82-24.18,0-.11-.08-.51.09-.51,1.2,2.47,2.4,4.92,3.33,7.51,8.08,22.66.03,47.71-19.48,61.47-.39.27-3.76,2.58-3.93,2.43Z"/>
        <g>
          <path class="st1" d="M99.89,24.76h-1.44c-2.56,0-5.45,2.23-6.72,4.34-4.56,7.59,2.93,14.89,5.86,21.45,2.63,5.89,3,12.12,1.19,18.33l-8.18,27.3-19.24-56.96v-.22c1.52-.04,3.07-.11,4.6-.28,1.83-.2,3.73-.38,3.39-2.83-.23-1.68-1.89-1.68-3.2-1.63-2.84.1-5.71.45-8.55.56-4.32.16-8.62.03-12.93-.19-1.89-.1-4.42-.54-6.24-.37-1.95.17-2.48,3.02-.91,3.99.72.45,4.4.66,5.47.76.42.04,1-.16,1.24.25l8.19,22.5-11.52,34.68-.19.23-19.34-57.52c-.04-.19,1.29-.13,1.44-.14,1.18-.09,4.58-.25,5.48-.66,1.8-.83,1.45-3.86-.55-4.08-1.74-.2-4.4.28-6.23.37-3.98.2-7.97.38-11.95.19,7.71-11.84,20.28-20.34,34.2-23.03,16.52-3.2,33.87,1.58,46.14,12.99Z"/>
          <path class="st1" d="M65.01,68.75l16.65,45.47c-2.73.91-5.52,1.69-8.37,2.19-8.11,1.42-16.48.94-24.37-1.35l16.09-46.31Z"/>
        </g>
      </g>
    </g>
  </a>
</svg>