<?xml version="1.0" encoding="UTF-8"?>
<svg id="Exit" xmlns="http://www.w3.org/2000/svg" viewBox="0 0 400 400">
  <defs>
    <style>
      .cls-1 {
        fill: #07548e;
      }
    </style>
  </defs>
  <path class="cls-1" d="M204.31,270.12l-36.6,61.16c-11.24,18.78-35.67,24.93-54.45,13.69s-24.92-35.68-13.68-54.46l36.6-61.16,6.73-11.25,10.97-18.34c4.51-7.54,11.14-13.03,18.68-16.19,3.62-1.53,7.47-2.51,11.39-2.9,8.22-.85,16.77.85,24.39,5.41,7.61,4.56,13.15,11.28,16.29,18.92,4.66-2.31,8.71-5.92,11.57-10.7l13.82-23.09c-5.79-7.36-12.98-13.79-21.48-18.88-8.5-5.09-17.58-8.39-26.81-10-4.24-.76-8.51-1.15-12.77-1.2-19.57-.21-38.87,6.83-53.73,20.12-5.18,4.63-9.81,10-13.73,16.09-.48.73-.93,1.47-1.38,2.22l-54.3,90.75c-22.38,37.4-10.16,86.03,27.24,108.41,37.4,22.38,86.02,10.15,108.4-27.25l54.3-90.75c.45-.75.89-1.5,1.3-2.27-15.95,9.1-34.4,13.2-52.76,11.65Z"/>
  <path class="cls-1" d="M198.54,48.52l-54.3,90.75c-.45.75-.89,1.5-1.3,2.27,15.95-9.1,34.4-13.2,52.76-11.65l36.6-61.16c11.24-18.78,35.67-24.93,54.46-13.68,18.78,11.24,24.91,35.67,13.67,54.45l-36.6,61.16-6.73,11.25-10.97,18.34c-4.5,7.53-11.13,13.03-18.68,16.18-3.63,1.54-7.48,2.52-11.4,2.92-8.21.84-16.76-.86-24.37-5.42-7.61-4.56-13.16-11.29-16.3-18.93-4.66,2.31-8.72,5.93-11.57,10.71l-13.81,23.08c5.78,7.37,12.98,13.81,21.48,18.89,8.5,5.09,17.57,8.38,26.79,10,4.24.75,8.51,1.14,12.77,1.19,19.58.23,38.87-6.83,53.72-20.11,5.18-4.63,9.82-10.01,13.73-16.1.48-.73.93-1.47,1.38-2.22l54.3-90.75c22.38-37.4,10.17-86.03-27.23-108.41s-86.03-10.16-108.41,27.24Z"/>
</svg>