<?xml version="1.0" encoding="UTF-8"?>
<svg id="Layer_1" xmlns="http://www.w3.org/2000/svg" version="1.1" viewBox="0 0 128 128">
  <!-- Generator: Adobe Illustrator 29.7.1, SVG Export Plug-In . SVG Version: 2.1.1 Build 8)  -->
  <defs>
    <style>
      .st0 {
        fill: #3f99ea;
      }

      .st1 {
        fill: #d7dee2;
      }

      .st2 {
        fill: #fff;
      }

      .st3 {
        fill: #bbc5cd;
      }
    </style>
  </defs>
  <g id="Generative_Object">
    <path class="st0" d="M17.6,103.09c4.25,7.66,15.44,6.58,18.93-1.26.3-.67.41-2.3.59-2.66.51-1.02,4.6-3.86,5.32-5.25,13.43-12.59,26.18-25.95,39.42-38.75,15.62,5.81,31.92-6.58,30.84-23.15-.06-.88-.36-2.77-.59-3.62.91,1.26,1.77,3.86,1.92,5.4,1.47,14.88-10.8,27.07-25.66,25.52l-5.18-1.33-44.89,44.15c-1.63,8.71-12.04,12.33-18.56,6.14-1.53-1.45-3.15-4.17-2.96-6.21l.81,1.04Z"/>
    <path class="st3" d="M112.7,32.01c-.06-.88-.36-2.77-.59-3.62-.07-.28-.59-1.91-.81-1.92l-15.68,15.68-10.95-2.22-.37-.37-2.22-10.8,15.38-15.6c-18.29-6.88-35.14,11.72-28.1,29.73-.15.21-.53.69-.59.89-.04.14-.13.17-.15.3-.96.58-1.69,1.47-2.51,2.22-14.53,13.23-28.11,27.53-42.3,41.12-3.35.88-6.52,4.35-7.25,7.69-.62,2.88-.42,5.37,1.04,7.99,4.25,7.66,15.44,6.58,18.93-1.26.3-.67.41-2.3.59-2.66.07-.15.23-.33.43-.55.24-.12,1.01-.85,1.89-1.71,1.26-1.08,2.62-2.24,3.01-2.99,13.43-12.59,26.18-25.95,39.42-38.75,15.62,5.81,31.92-6.58,30.84-23.15Z"/>
    <g>
      <path class="st2" d="M30.61,95.4c2.7,4.51-2.47,9.05-6.66,6.36-2.33-4.31,2.41-8.66,6.43-5.92l.22-.44Z"/>
      <path class="st0" d="M30.61,95.4l-.22.44c-4.03-2.75-8.76,1.61-6.43,5.92-6.43-4.13,2.57-13.18,6.66-6.36Z"/>
    </g>
  </g>
  <path class="st1" d="M64.12,51.91c1.7-.26,2.89.88,2.59,2.59-9.96,10.3-20.43,20.37-30.84,30.25-2.01.41-3.49-1.3-2.59-3.18l29.21-28.62c.57-.27.95-.93,1.63-1.04Z"/>
</svg>